<svg width="59" height="25" viewBox="0 0 59 25" fill="none" xmlns="http://www.w3.org/2000/svg">
<path d="M0.402344 2.37891C0.402344 2.93555 0.475586 3.86816 0.62207 5.17676C0.768555 6.47559 0.841797 7.62793 0.841797 8.63379C0.841797 9.83496 0.836914 10.875 0.827148 11.7539L0.797852 14.332C0.797852 15.2891 0.734375 16.6367 0.607422 18.375C0.470703 20.2402 0.402344 21.5879 0.402344 22.418C0.402344 23.541 0.695312 24.1025 1.28125 24.1025C1.96484 24.1025 2.30664 23.5703 2.30664 22.5059V20.0449C2.30664 19.4199 2.27734 18.4922 2.21875 17.2617C2.15039 16.1094 2.11621 15.1816 2.11621 14.4785C2.11621 14.1562 2.12598 13.873 2.14551 13.6289C2.1748 13.375 2.19434 13.2236 2.2041 13.1748C2.22363 12.96 2.33105 12.6621 2.52637 12.2812C2.78027 11.7734 2.98535 11.3828 3.1416 11.1094C3.96191 12.916 4.64062 14.8496 5.17773 16.9102C5.72461 18.9609 6.2666 21.5195 6.80371 24.5859C6.88184 24.5859 6.99414 24.6055 7.14062 24.6445C7.28711 24.6836 7.40918 24.7031 7.50684 24.7031C7.75098 24.7031 7.9707 24.6152 8.16602 24.4395C8.36133 24.2734 8.45898 24.0732 8.45898 23.8389C8.45898 23.5947 7.80957 21.4268 6.51074 17.335C5.22168 13.2334 4.4209 10.792 4.1084 10.0107V9.4834C4.24512 8.86816 4.86035 7.41797 5.9541 5.13281C7.03809 2.84766 7.58008 1.60742 7.58008 1.41211C7.58008 1.1875 7.49707 1.00195 7.33105 0.855469C7.16504 0.699219 6.96484 0.621094 6.73047 0.621094C6.54492 0.621094 6.28125 0.894531 5.93945 1.44141C5.59766 1.98828 5.23633 2.69629 4.85547 3.56543C4.12305 5.24512 3.43945 6.91016 2.80469 8.56055C2.47266 9.42969 2.28223 9.91797 2.2334 10.0254L2.36523 3.8584C2.36523 2.2373 1.99414 1.42676 1.25195 1.42676C1.01758 1.42676 0.817383 1.51953 0.651367 1.70508C0.485352 1.89063 0.402344 2.11523 0.402344 2.37891ZM19.4014 23.9854C19.0791 23.9854 18.8447 23.9268 18.6982 23.8096C18.5518 23.6924 18.4785 23.4922 18.4785 23.209V19.2979C18.2148 19.1123 17.7266 18.9512 17.0137 18.8145C16.3105 18.668 15.6318 18.5752 14.9775 18.5361C14.7822 18.8682 14.6162 19.376 14.4795 20.0596L14.3916 20.5137C14.2354 21.3145 14.0938 21.9639 13.9668 22.4619C13.8398 22.96 13.6836 23.3604 13.498 23.6631C12.7266 23.6631 12.2871 23.4629 12.1797 23.0625C12.3652 22.7988 12.6143 21.8613 12.9268 20.25C13.1904 18.873 13.5176 17.042 13.9082 14.7568C14.3574 12.1006 14.7676 9.86914 15.1387 8.0625C15.5098 6.24609 15.9004 4.71777 16.3105 3.47754C16.7598 2.09082 17.1992 1.39746 17.6289 1.39746C18.0488 1.39746 18.3711 1.48535 18.5957 1.66113C18.5957 2.40332 18.791 4.33203 19.1816 7.44727C19.5723 10.5625 19.7676 12.6133 19.7676 13.5996C19.7676 14.5371 19.875 16.0508 20.0898 18.1406C20.2949 20.2891 20.3975 21.9004 20.3975 22.9746C20.3975 23.6484 20.0654 23.9854 19.4014 23.9854ZM17.834 17.54C18.0098 17.54 18.2148 17.5107 18.4492 17.4521C18.4199 17.0225 18.3174 15.9336 18.1416 14.1855C17.6826 9.55664 17.4531 6.79297 17.4531 5.89453C17.4531 5.74805 17.458 5.66016 17.4678 5.63086C17.2725 5.82617 16.999 6.72949 16.6475 8.34082C16.2959 9.95215 15.9688 11.6855 15.666 13.541C15.3633 15.3867 15.1973 16.6074 15.168 17.2031C16.0176 17.4277 16.9062 17.54 17.834 17.54ZM26.6963 11.417C26.9014 12.2275 27.2676 13.4727 27.7949 15.1523C28.3711 16.998 28.8105 18.5752 29.1133 19.8838C29.4258 21.1826 29.6113 22.3545 29.6699 23.3994V23.502C30.0215 24.0391 30.3828 24.3076 30.7539 24.3076C31.1152 24.3076 31.3301 24.1416 31.3984 23.8096C31.4277 23.6631 31.4473 23.5264 31.457 23.3994C31.4766 23.2725 31.4863 23.126 31.4863 22.96V22.8867L30.6074 20.2354C30.1582 18.9072 29.8018 17.8135 29.5381 16.9541C29.2451 16.0264 28.9814 15.0107 28.7471 13.9072C28.5225 12.8037 28.4053 11.8906 28.3955 11.168L28.7031 10.3916L29.0547 9.52734C29.3379 8.76562 29.5137 8.20898 29.582 7.85742C29.7188 7.17383 29.7871 6.6123 29.7871 6.17285C29.7871 5.7041 29.7432 5.24512 29.6553 4.7959C29.5576 4.32715 29.4062 3.87793 29.2012 3.44824C28.9961 3.00879 28.752 2.62305 28.4688 2.29102C28.166 1.94922 27.7998 1.68066 27.3701 1.48535C26.9502 1.29004 26.4961 1.19238 26.0078 1.19238C25.6855 1.19238 25.4707 1.24121 25.3633 1.33887C25.2656 1.42676 25.2168 1.59277 25.2168 1.83691V5.52832C25.2168 7.91113 25.1973 10.8408 25.1582 14.3174C25.1191 17.7939 25.0996 20.7285 25.0996 23.1211V23.3555C25.0996 23.5898 25.168 23.79 25.3047 23.9561C25.4512 24.1123 25.6367 24.1904 25.8613 24.1904C26.1836 24.1904 26.4033 24.1123 26.5205 23.9561C26.6377 23.7998 26.6963 23.5605 26.6963 23.2383V11.417ZM27.6338 8.91211C27.3115 9.35156 26.9746 9.7373 26.623 10.0693C26.6035 9.65918 26.5938 9.2002 26.5938 8.69238C26.5938 7.96973 26.623 6.92969 26.6816 5.57227C26.7305 4.05859 26.7549 3.05762 26.7549 2.56934C26.96 2.6084 27.1504 2.75 27.3262 2.99414C27.5117 3.23828 27.6631 3.54102 27.7803 3.90234C28.0146 4.6543 28.1318 5.32812 28.1318 5.92383C28.1318 6.01172 28.1221 6.14355 28.1025 6.31934L27.6338 8.91211ZM43.4541 1.77832C43.376 2.95996 43.2393 4.20508 43.0439 5.51367C42.8389 6.8125 42.6484 7.90137 42.4727 8.78027C42.2969 9.65918 42.0088 11.002 41.6084 12.8086C41.5596 13.0234 41.5059 13.2529 41.4473 13.4971C41.3984 13.7412 41.3447 14 41.2861 14.2734C41.0713 15.2012 40.9248 15.8652 40.8467 16.2656C40.8076 16.0996 40.6611 15.3281 40.4072 13.9512C40.1729 12.6816 39.9141 11.373 39.6309 10.0254C38.8691 6.38281 38.2197 3.89746 37.6826 2.56934C37.3115 1.69043 36.9795 1.24609 36.6865 1.23633L35.8516 1.70508C35.8223 2.99414 35.8076 4.28809 35.8076 5.58691C35.8076 7.15918 35.8271 9.09277 35.8662 11.3877C35.8955 13.9658 35.9102 15.9043 35.9102 17.2031C35.9102 17.623 35.8857 18.4287 35.8369 19.6201C35.7881 20.8213 35.7637 21.6367 35.7637 22.0664C35.7637 22.6719 35.8613 23.1309 36.0566 23.4434C36.252 23.7559 36.5938 23.9121 37.082 23.9121C37.3848 23.5996 37.5361 23.2236 37.5361 22.7842C37.5361 21.5928 37.4971 19.5371 37.4189 16.6172C37.3311 13.873 37.2871 11.8174 37.2871 10.4502C37.2871 9.4541 37.3066 8.24805 37.3457 6.83203C37.4629 7.37891 37.7559 8.50195 38.2246 10.2012C38.6934 11.9492 39.0303 13.4189 39.2354 14.6104C39.4502 15.8018 39.5576 16.915 39.5576 17.9502C39.5576 19.8154 39.9141 20.748 40.627 20.748C41.0664 20.748 41.374 20.5088 41.5498 20.0303C41.6377 19.8057 41.7012 19.6006 41.7402 19.415C41.7891 19.2197 41.833 18.9756 41.8721 18.6826L41.96 18.126V17.9355C42.0869 16.9102 42.3945 15.4307 42.8828 13.4971C43.3711 11.5732 43.6787 10.2256 43.8057 9.4541V10.9775C43.8057 12.6865 43.8252 14.791 43.8643 17.291C43.9033 19.791 43.9229 21.8955 43.9229 23.6045C43.9229 23.9756 43.9814 24.2637 44.0986 24.4688C44.2256 24.6836 44.3867 24.791 44.582 24.791C44.7676 24.791 44.9531 24.708 45.1387 24.542C45.3242 24.376 45.4756 24.1562 45.5928 23.8828C45.71 23.6094 45.7686 23.3213 45.7686 23.0186C45.7686 20.626 45.6807 17.042 45.5049 12.2666C45.3193 7.61816 45.2266 4.03418 45.2266 1.51465C45.2266 1.3291 45.1533 1.1582 45.0068 1.00195C44.8604 0.835938 44.6992 0.75293 44.5234 0.75293C44.25 0.75293 44.0107 0.831055 43.8057 0.987305C43.6104 1.14355 43.4932 1.34863 43.4541 1.60254V1.77832ZM57.2822 23.9854C56.96 23.9854 56.7256 23.9268 56.5791 23.8096C56.4326 23.6924 56.3594 23.4922 56.3594 23.209V19.2979C56.0957 19.1123 55.6074 18.9512 54.8945 18.8145C54.1914 18.668 53.5127 18.5752 52.8584 18.5361C52.6631 18.8682 52.4971 19.376 52.3604 20.0596L52.2725 20.5137C52.1162 21.3145 51.9746 21.9639 51.8477 22.4619C51.7207 22.96 51.5645 23.3604 51.3789 23.6631C50.6074 23.6631 50.168 23.4629 50.0605 23.0625C50.2461 22.7988 50.4951 21.8613 50.8076 20.25C51.0713 18.873 51.3984 17.042 51.7891 14.7568C52.2383 12.1006 52.6484 9.86914 53.0195 8.0625C53.3906 6.24609 53.7812 4.71777 54.1914 3.47754C54.6406 2.09082 55.0801 1.39746 55.5098 1.39746C55.9297 1.39746 56.252 1.48535 56.4766 1.66113C56.4766 2.40332 56.6719 4.33203 57.0625 7.44727C57.4531 10.5625 57.6484 12.6133 57.6484 13.5996C57.6484 14.5371 57.7559 16.0508 57.9707 18.1406C58.1758 20.2891 58.2783 21.9004 58.2783 22.9746C58.2783 23.6484 57.9463 23.9854 57.2822 23.9854ZM55.7148 17.54C55.8906 17.54 56.0957 17.5107 56.3301 17.4521C56.3008 17.0225 56.1982 15.9336 56.0225 14.1855C55.5635 9.55664 55.334 6.79297 55.334 5.89453C55.334 5.74805 55.3389 5.66016 55.3486 5.63086C55.1533 5.82617 54.8799 6.72949 54.5283 8.34082C54.1768 9.95215 53.8496 11.6855 53.5469 13.541C53.2441 15.3867 53.0781 16.6074 53.0488 17.2031C53.8984 17.4277 54.7871 17.54 55.7148 17.54Z" fill="white"/>
</svg>
