<svg width="54" height="47" viewBox="0 0 54 47" fill="none" xmlns="http://www.w3.org/2000/svg">
<path d="M3.38065 0C2.02019 0 0.786289 0.716016 0.258979 1.81758C-0.26833 2.91914 0.0269634 4.17676 0.986666 5.02129L23.6293 24.7209V41.125H16.8798C15.0131 41.125 13.505 42.4377 13.505 44.0625C13.505 45.6873 15.0131 47 16.8798 47H27.0041H37.1284C38.9951 47 40.5032 45.6873 40.5032 44.0625C40.5032 42.4377 38.9951 41.125 37.1284 41.125H30.3789V24.7209L53.011 5.01211C53.9813 4.16758 54.266 2.90996 53.7387 1.8084C53.2114 0.706836 51.988 0 50.6276 0H3.38065ZM18.2824 11.75L11.5329 5.875H42.4754L35.7258 11.75H18.2824Z" fill="#F8F32B"/>
</svg>
